<svg xmlns="http://www.w3.org/2000/svg" shape-rendering="crispEdges" viewBox="0 0 56 96">
<rect width="56" height="96" fill="#0a0b1e"/>
<rect x="16" y="0" width="8" height="8" fill="#c9d6ff"/>
<rect x="24" y="0" width="8" height="8" fill="#c9d6ff"/>
<rect x="32" y="0" width="8" height="8" fill="#c9d6ff"/>
<rect x="8" y="8" width="8" height="8" fill="#c9d6ff"/>
<rect x="16" y="8" width="8" height="8" fill="#c9d6ff"/>
<rect x="24" y="8" width="8" height="8" fill="#0a0b1e"/>
<rect x="32" y="8" width="8" height="8" fill="#c9d6ff"/>
<rect x="40" y="8" width="8" height="8" fill="#c9d6ff"/>
<rect x="8" y="16" width="8" height="8" fill="#c9d6ff"/>
<rect x="16" y="16" width="8" height="8" fill="#0a0b1e"/>
<rect x="24" y="16" width="8" height="8" fill="#0a0b1e"/>
<rect x="32" y="16" width="8" height="8" fill="#0a0b1e"/>
<rect x="40" y="16" width="8" height="8" fill="#c9d6ff"/>
<rect x="8" y="24" width="8" height="8" fill="#c9d6ff"/>
<rect x="16" y="24" width="8" height="8" fill="#0a0b1e"/>
<rect x="24" y="24" width="8" height="8" fill="#0a0b1e"/>
<rect x="32" y="24" width="8" height="8" fill="#0a0b1e"/>
<rect x="40" y="24" width="8" height="8" fill="#c9d6ff"/>
<rect x="8" y="32" width="8" height="8" fill="#c9d6ff"/>
<rect x="16" y="32" width="8" height="8" fill="#c9d6ff"/>
<rect x="24" y="32" width="8" height="8" fill="#0a0b1e"/>
<rect x="32" y="32" width="8" height="8" fill="#c9d6ff"/>
<rect x="40" y="32" width="8" height="8" fill="#c9d6ff"/>
<rect x="0" y="40" width="8" height="8" fill="#c9d6ff"/>
<rect x="8" y="40" width="8" height="8" fill="#c9d6ff"/>
<rect x="16" y="40" width="8" height="8" fill="#c9d6ff"/>
<rect x="24" y="40" width="8" height="8" fill="#c9d6ff"/>
<rect x="32" y="40" width="8" height="8" fill="#c9d6ff"/>
<rect x="40" y="40" width="8" height="8" fill="#c9d6ff"/>
<rect x="48" y="40" width="8" height="8" fill="#c9d6ff"/>
<rect x="0" y="48" width="8" height="8" fill="#c9d6ff"/>
<rect x="8" y="48" width="8" height="8" fill="#4ce0d2"/>
<rect x="16" y="48" width="8" height="8" fill="#4ce0d2"/>
<rect x="24" y="48" width="8" height="8" fill="#4ce0d2"/>
<rect x="32" y="48" width="8" height="8" fill="#4ce0d2"/>
<rect x="40" y="48" width="8" height="8" fill="#4ce0d2"/>
<rect x="48" y="48" width="8" height="8" fill="#c9d6ff"/>
<rect x="0" y="56" width="8" height="8" fill="#c9d6ff"/>
<rect x="8" y="56" width="8" height="8" fill="#c9d6ff"/>
<rect x="16" y="56" width="8" height="8" fill="#c9d6ff"/>
<rect x="24" y="56" width="8" height="8" fill="#4ce0d2"/>
<rect x="32" y="56" width="8" height="8" fill="#c9d6ff"/>
<rect x="40" y="56" width="8" height="8" fill="#c9d6ff"/>
<rect x="48" y="56" width="8" height="8" fill="#c9d6ff"/>
<rect x="16" y="64" width="8" height="8" fill="#c9d6ff"/>
<rect x="24" y="64" width="8" height="8" fill="#4ce0d2"/>
<rect x="32" y="64" width="8" height="8" fill="#c9d6ff"/>
<rect x="8" y="72" width="8" height="8" fill="#c9d6ff"/>
<rect x="16" y="72" width="8" height="8" fill="#ffd166"/>
<rect x="24" y="72" width="8" height="8" fill="#ffd166"/>
<rect x="32" y="72" width="8" height="8" fill="#ffd166"/>
<rect x="40" y="72" width="8" height="8" fill="#c9d6ff"/>
<rect x="16" y="80" width="8" height="8" fill="#ffd166"/>
<rect x="24" y="80" width="8" height="8" fill="#ffd166"/>
<rect x="32" y="80" width="8" height="8" fill="#ffd166"/>
<rect x="24" y="88" width="8" height="8" fill="#ffd166"/>
</svg>